<svg width="635" height="397" fill="none" xmlns="http://www.w3.org/2000/svg"><path d="M347.624 161.387l5.089 18.595c4.05-3.147 9.636-1.385 11.609-1.19l-2.063-18.143s-9.109 3.433-14.635.738z" fill="#FFBF4D"/><path d="M352.066 164.173c-1.174-.648-2.846-2.876-5.044-4.788-4.803-4.156-10.931-9.004-11.97-8.568-1.521.633-2.183 2.876-1.822 3.81.361.933 8.357 8.537 7.483 9.606-1.445 1.792-6.399 1.701-7.076 2.635-1.476 2.062 5.315 11.593 7.498 13.957 2.198 2.394 10.539 1.461 14.65-3.372 1.475-1.732-3.719-13.28-3.719-13.28z" fill="#FFBF4D"/><path d="M338.485 165.588c-3.011.662-7.122 1.762-8.191 1.611-1.069-.151-7.287-1.159-7.874-.632-.588.527-2.048 2.996-.723 3.673 1.34.693 8.296 1.702 9.937 1.431 1.626-.271 6.911-.738 7.303-1.16.361-.406 1.219-5.299-.452-4.923zM338.575 170.963c-2.951 1.099-6.956 2.816-8.055 2.816-1.099-.015-7.468-.196-7.995.436-.542.633-1.777 3.403-.361 3.945 1.415.527 8.537.602 10.148.091 1.611-.512 6.85-1.732 7.197-2.214.316-.497.692-5.676-.934-5.074zM343.86 176.444c-2.936 1.219-6.911 3.116-8.01 3.147-1.099.03-7.528.045-8.055.707-.527.663-1.687 3.569-.241 4.081 1.445.496 8.627.346 10.238-.226 1.596-.572 6.836-2.003 7.167-2.515.332-.512.527-5.872-1.099-5.194z" fill="#FFBF4D"/><path d="M388.939 158.029c9.32-2.71 16.623-7.242 21.667-13.822l27.93 40.171c-10.871 3.177-21.335 5.195-30.836 4.532l-18.761-30.881z" fill="#FF9566"/><path d="M398.771 154.069l10.751 13.19 3.508-2.198-7.965-15.192a40.435 40.435 0 01-6.294 4.2z" fill="#FFB882"/><path d="M391.002 150.381c18.701 14.499 20.974 45.35 20.974 45.35s-36.346-3.613-60.874-13.867l-.632-20.402 40.532-11.081z" fill="#FFBF4D"/><path d="M402.385 164.052c-10.238 1.114-51.283 17.812-51.283 17.812 24.527 10.269 60.874 13.867 60.874 13.867s-1.25-16.878-9.591-31.679z" fill="#FFA33E"/><path d="M462.867 90.847c-9.636-5.405-38.635 30.806-57.32 53.601l31.98 45.923c37.762-41.255 34.976-94.134 25.34-99.524z" fill="#F7DEB0"/><path d="M462.867 90.847c-3.764-2.108-10.464 2.138-18.354 9.425-.15 7.544-1.249 16.186-3.387 25.205-4.593 19.333-12.648 34.977-20.297 40.924l16.698 23.985c37.762-41.27 34.977-94.149 25.34-99.54z" fill="#E8C792"/><path d="M584.208 368.927h2.425l-28.337-95.278s-9.561-83.88-7.393-103.8c2.183-19.92-8.356-71.64-13.807-76.683-11.533-10.66-36.738-20.778-44.01-19.574-7.272 1.205-41.376 15.011-45.381 27.493-10.509 32.839 13.446 79.198 15.268 112.669.09 1.746-6.535 68.763-6.535 68.763l2.906 87.359h2.183l15.509-72.468 29.42-47.759 18.655 45.832 59.097 73.446z" fill="#0F5D8C"/><path d="M471.69 243.099l48.332-16.532-1.671-5.21 15.628-16.998 5.21 2.559 5.721-21.847-14.318-24.587-67.74 41.345 8.838 41.27z" fill="#0F5D8C"/><path d="M543.209 119.485c4.201 26.063 6.173 65.466.497 65.586-5.676.121-22.464-32.462-22.464-37.22 0-4.773 21.967-28.366 21.967-28.366z" fill="#0F5D8C"/><path d="M540.589 114.411c4.201 26.063 6.174 65.466.497 65.586-5.676.121-22.464-32.462-22.464-37.22-.015-4.773 21.967-28.366 21.967-28.366z" fill="#E8C792"/><path d="M480.785 299.155l22.043-43.423 21.034 41.451 60.346 71.759h1.913c-13.898-20.371-58.254-74.485-58.254-74.485l-17.285-46.163 6.007-8.688-12.527 3.222-23.051-2.183-14.53-17.42v73.205l-6.459 73.461h1.475l19.288-70.736z" fill="#144A6A"/><path d="M442.149 371.743h21.396s1.355-6.204-2.891-8.086c-4.246-1.867-18.505 8.086-18.505 8.086zM595.441 371.743h-16.186s-.738-7.453 2.56-9.727c3.282-2.243 13.626 9.727 13.626 9.727z" fill="#393939"/><path d="M487.274 171.942c-.918-3.042-2.921-5.119-4.487-4.653-1.566.467-2.093 3.313-1.174 6.354.918 3.042 2.921 5.119 4.487 4.653 1.551-.467 2.093-3.313 1.174-6.354z" fill="#417EA3"/><path d="M485.181 171.806c-.527-1.731-1.656-2.921-2.56-2.65-.888.271-1.189 1.882-.677 3.614.527 1.731 1.656 2.921 2.559 2.65.889-.256 1.19-1.882.678-3.614z" fill="#E8C792"/><path d="M523.53 83.92c-11.744-6.519-25.4-11.156-30.429-10.313-6.49 1.084-34.374 12.316-43.107 23.684-3.012 20.402.557 49.401 6.098 67.288l40.216 1.701c-10.404-48.873 17.149-74.74 27.222-82.36z" fill="#F7DEB0"/><path d="M493.086 73.607c-5.029.843-22.886 7.77-34.736 16.126-1.355 12.617 2.786 21.199 18.369 20.657 16.292-.557 29.105-21.681 34.54-32.326-7.784-3.177-14.846-5.014-18.173-4.457z" fill="#FF7694"/><path d="M457.763 162.14c-5.481-17.737-9.019-46.359-6.158-66.73a25.83 25.83 0 00-1.626 1.866c-3.012 20.402.226 50.319 5.751 68.207l40.548.782a82.871 82.871 0 01-.482-2.529l-38.033-1.596z" fill="#E8C792"/><path d="M507.736 76.694L483.435 46.85l-26.154 9.682s.919 23.548 1.461 31.242c.422 5.993 3.87 16.713 18.896 15.75 16.758-1.069 30.098-26.831 30.098-26.831z" fill="#FFB882"/><path opacity=".6" d="M527.144 86.044a109.166 109.166 0 00-5.842-3.313c-.015 0-.015-.015-.03-.015-.708-.361-1.4-.722-2.108-1.084-.075-.03-.136-.075-.211-.105-1.445-.723-2.906-1.4-4.351-2.048a1.481 1.481 0 01-.226-.105 72.746 72.746 0 00-2.003-.858c-.06-.016-.105-.046-.165-.06a82.59 82.59 0 00-2.153-.874c-.015 0-.03-.015-.03-.015-.663-.256-1.31-.512-1.958-.738-.12-.045-.226-.09-.346-.12L483.57 47.047l-18.324 11.76c-3.132 8.567-5.36 16.923-6.775 24.783.09 1.656.18 3.101.256 4.215.03.482.09 1.01.18 1.536-.496.347-.978.693-1.46 1.054-3.313 26.997 3.93 46.239 19.573 43.303 19.74-3.734 23.368-39.283 50.124-47.654z" fill="#C94343"/><path d="M449.226 66.109c-13.626-1.22-14.379-19.814-14.379-19.814s-6.805-3.825-4.938-13.687c1.867-9.922 14.876-10.555 14.876-10.555s-3.283-5.134 6.384-9.124c10.042-4.156 16.577.828 16.577.828s13.129-7.362 18.444 3.69c5.406 11.276-36.964 48.662-36.964 48.662z" fill="#A88476"/><path d="M486.16 17.431c-5.315-11.036-18.444-3.689-18.444-3.689s-3.328-2.514-8.869-2.47c4.849 2.124 8.342 5.752 9.29 10.36 1.882 9.14-6.941 18.67-19.694 21.29-6.61 1.355-12.964.572-17.827-1.747 1.536 3.599 4.231 5.12 4.231 5.12s.753 18.594 14.379 19.814c0 0 42.369-37.385 36.934-48.678z" fill="#895F52"/><path d="M441.788 35.815c-4.231 21.17 9.696 51.96 15.734 57.14s24.317 3.403 31.258-7.604c5.089-8.055 2.379-21.29-1.295-31.86-3.659-10.57-9.606-23.759-17.029-26.74-6.46-2.575-26.952.437-28.668 9.064z" fill="#FFB882"/><path d="M462.431 86.54c0-.948-1.235-1.716-2.756-1.716-1.52 0-2.755.768-2.755 1.717 0 .948 1.28 1.55 2.755.873 1.099-.497 2.756.075 2.756-.873z" fill="#FF9566"/><path d="M500.223 67.51c4.682-13.778-1.145-21.125-1.145-21.125s4.337-10.555-1.385-16.683c-5.721-6.128-7.98-4.08-7.98-4.08s1.973-9.862-6.414-9.862c-8.838 0-18.52 7.483-17.134 17.36 1.445 10.329 8.296 12.934 8.296 12.934s-2.485 13.505 4.622 19.618c12.256-3.402 21.14 1.837 21.14 1.837z" fill="#A88476"/><path d="M500.449 45.617s3.929-10.826-1.777-16.939c-5.722-6.128-8.131-4.23-8.131-4.23s1.175-8.658-7.212-8.658c-.466 0-.948.03-1.415.075 2.138 2.846 3.448 6.73 3.448 11.037 0 8.687-5.36 15.719-11.955 15.719-1.4 0-2.74-.332-3.99-.919 2.379 3.343 5.089 4.367 5.089 4.367s-2.484 13.505 4.623 19.618c12.256-3.402 21.124 1.837 21.124 1.837 4.652-13.791.196-21.907.196-21.907z" fill="#895F52"/><path d="M480.017 56.322c1.927-9.109 8.988-10.494 12.12-4.983 3.132 5.495-3.373 18.82-8.462 17.405-2.71-.753-4.05-10.54-3.658-12.422z" fill="#FFB882"/><path d="M450.235 92.82c-3.403-11.444-.226-18.746 4.968-19.95 5.21-1.205 19.469 6.022 22.841 18.444 0 0-10.795-3.147-21.32-10.163l-6.489 11.668z" fill="#A88476"/><path d="M482.411 57.15c1.129-5.33 5.254-6.143 7.091-2.92 1.837 3.222-1.972 11.006-4.938 10.178-1.596-.437-2.379-6.159-2.153-7.258z" fill="#DB5B3E"/><path d="M483.42 60.282c.783-3.764 3.704-4.336 4.983-2.063 1.295 2.274-1.385 7.77-3.478 7.182-1.114-.3-1.671-4.336-1.505-5.119z" fill="#FFB882"/><path d="M450.867 49.712c.903-1.791 12.121-1.054 14.816-.421 2.695.617 2.996 2.68 2.815 4.773-.18 2.093-12.512 5.164-16.291 2.273-1.731-1.34-2.243-4.848-1.34-6.625zM449.166 58.325c-.06 3.764-6.535 4.773-7.799 3.056-1.265-1.716-2.304-3.568-1.446-5.029.873-1.46 5.511-5.932 6.941-4.727 1.431 1.22 2.334 4.983 2.304 6.7z" fill="#A88476"/><path d="M460.006 59.409l-3.704 1.325c.046.12.076.24.121.361.828 2.078 2.364 3.508 3.418 3.207 1.054-.316 1.234-2.273.406-4.351-.075-.211-.165-.377-.241-.542zM446.2 64.407c.542 2.274 1.822 3.855 2.875 3.554 1.009-.286 1.431-2.243.979-4.442l-3.854.889z" fill="#4F3131"/><path d="M450.747 59.635c-1.717 8.341-1.897 14.876-.347 15.93 2.861 1.942 7.604-2.169 7.604-2.169l-7.257-13.761z" fill="#FF9566"/><path d="M451.771 59.123c-1.702 7.965-1.913 14.213-.422 15.222 2.74 1.837 7.287-2.153 7.287-2.153l-6.865-13.07z" fill="#FFB882"/><path d="M478.104 179.876c.046-3.176-1.234-5.766-2.875-5.796-1.626-.03-2.997 2.529-3.042 5.706-.045 3.177 1.235 5.767 2.876 5.797 1.626.015 2.996-2.53 3.041-5.707z" fill="#417EA3"/><path d="M476.147 179.109c.03-1.807-.708-3.283-1.641-3.298-.934-.015-1.702 1.446-1.732 3.252-.03 1.807.708 3.283 1.641 3.298.919.015 1.702-1.446 1.732-3.252z" fill="#E8C792"/><path d="M386.305 169.292l-3.072-.979 7.122-22.525c1.415-4.456 6.188-6.941 10.645-5.525l11.518 3.643c4.457 1.416 6.941 6.189 5.526 10.645l-3.568 11.263-3.072-.979 3.568-11.262c.874-2.756-.662-5.722-3.417-6.595l-11.519-3.644c-2.755-.873-5.721.663-6.594 3.418l-7.137 22.54z" fill="#ED4854"/><path d="M418.451 182.526c-3.509 11.082 3.041 22.389 14.529 26.033 11.654 3.689 25.235-1.49 30.565-12.331 5.767-11.744-.361-25.235-13.942-29.165-13.371-3.869-27.358 3.478-31.152 15.463z" fill="#7A6651"/><path d="M424.744 182.903c-3.659 11.563 2.756 23.925 14.319 27.584 11.563 3.658 23.925-2.756 27.584-14.319 3.658-11.564-2.756-23.925-14.319-27.584-11.579-3.674-23.925 2.74-27.584 14.319z" fill="#9B8B78"/><path d="M427.714 352.647l-158.952-50.3-4.311 13.623 158.952 50.3 4.311-13.623z" fill="#56323B"/><path d="M402.882 152.353l-57.26-18.128c-3.704-1.175-7.679.888-8.854 4.592l-4.336 13.702 70.706 22.374 4.336-13.702a7.035 7.035 0 00-4.592-8.838z" fill="#7A6651"/><path d="M420.95 158.075l-57.26-18.129c-3.704-1.174-7.679.889-8.854 4.593L350.5 158.24l70.706 22.374 4.336-13.701a7.036 7.036 0 00-4.592-8.838z" fill="#9B8B78"/><path d="M352.41 144.131l-4.234 13.378 73.024 23.109 4.233-13.379-73.023-23.108z" fill="#7A6651"/><path d="M367.047 151.977l-46.615-14.756-57.983 174.084 53.421 16.909 51.177-176.237z" fill="#E5D2B7"/><path d="M367.047 151.977l-46.615-14.756 21.094 33.049-25.656 157.944 51.177-176.237z" fill="#D8BE9E"/><path d="M327.915 314.738l-13.882-4.396-8.146 23.925 9.17 2.906 12.858-22.435zM422.32 344.626l13.882 4.381-6.579 24.422-9.17-2.891 1.867-25.912z" fill="#FFEED2"/><path d="M281.962 300.194l-13.882-4.397-9.591 23.473 9.17 2.906 14.303-21.982z" fill="#E5D2B7"/><path d="M365.496 326.633l-13.882-4.397-9.591 23.474 9.17 2.906 14.303-21.983z" fill="#56323B"/><path d="M481.221 188.112l-119.413-37.807-52.909 176.283 122.636 38.816 49.686-177.292z" fill="#FFEED2"/><path d="M466.541 183.46l-35.879-11.353-105.306 159.705 54.294 17.18 86.891-165.532z" fill="#FFF3E1"/><path d="M413.105 178.928c-1.34 4.216.241 8.492 3.538 9.531 3.283 1.039 7.047-1.536 8.372-5.767 1.34-4.231-.241-8.492-3.538-9.531-3.283-1.024-7.047 1.551-8.372 5.767z" fill="#C1A787"/><path d="M414.746 177.076a5.677 5.677 0 003.689 7.122 5.677 5.677 0 007.122-3.689 5.677 5.677 0 00-3.689-7.122c-2.981-.949-6.173.708-7.122 3.689z" fill="#E5D2B7"/><path d="M416.433 177.603a4.96 4.96 0 003.237 6.233 4.96 4.96 0 006.233-3.237 4.96 4.96 0 00-3.237-6.233c-2.605-.813-5.405.632-6.233 3.237z" fill="#F4E2C9"/><path d="M422.561 174.697a4.248 4.248 0 00-4.126.903c.332 1.416 1.37 2.635 2.846 3.102a4.246 4.246 0 004.125-.903 4.25 4.25 0 00-2.845-3.102z" fill="#FFF1DC"/><path d="M392.809 172.514c-1.34 4.231.241 8.492 3.538 9.531 3.283 1.039 7.047-1.536 8.372-5.767 1.34-4.216-.241-8.492-3.539-9.531-3.297-1.039-7.046 1.536-8.371 5.767z" fill="#C1A787"/><path d="M394.45 170.647a5.677 5.677 0 003.689 7.122 5.677 5.677 0 007.122-3.689 5.677 5.677 0 00-3.689-7.122c-2.981-.949-6.173.708-7.122 3.689z" fill="#E5D2B7"/><path d="M396.137 171.189a4.96 4.96 0 003.237 6.233 4.96 4.96 0 006.233-3.237 4.96 4.96 0 00-3.237-6.233 4.96 4.96 0 00-6.233 3.237z" fill="#F4E2C9"/><path d="M402.265 168.283a4.248 4.248 0 00-4.126.903c.331 1.416 1.37 2.635 2.846 3.102a4.247 4.247 0 004.125-.903 4.201 4.201 0 00-2.845-3.102z" fill="#FFF1DC"/><path d="M426.536 183.189c-1.34 4.231.241 8.492 3.538 9.531 3.282 1.039 7.047-1.536 8.372-5.767 1.34-4.216-.241-8.492-3.539-9.531-3.282-1.039-7.031 1.536-8.371 5.767z" fill="#C1A787"/><path d="M428.177 181.322c-.949 2.981.708 6.173 3.689 7.122a5.677 5.677 0 007.122-3.689 5.677 5.677 0 00-3.689-7.122c-2.981-.949-6.173.708-7.122 3.689z" fill="#E5D2B7"/><path d="M429.878 181.864a4.96 4.96 0 003.238 6.233 4.96 4.96 0 006.233-3.237 4.96 4.96 0 00-3.237-6.233 4.961 4.961 0 00-6.234 3.237z" fill="#F4E2C9"/><path d="M435.991 178.958a4.247 4.247 0 00-4.125.903c.331 1.416 1.37 2.635 2.845 3.102a4.248 4.248 0 004.126-.903 4.2 4.2 0 00-2.846-3.102z" fill="#FFF1DC"/><path d="M383.61 163.239l-20.447-6.474-.377 1.204a3.776 3.776 0 002.455 4.743l13.249 4.201a3.776 3.776 0 004.743-2.454l.377-1.22z" fill="#C1A787"/><path d="M379.845 160.213l-16.14-5.105-.377 1.205a3.777 3.777 0 002.455 4.743l8.943 2.83a3.775 3.775 0 004.743-2.454l.376-1.219z" fill="#FFEED2"/><path opacity=".6" d="M444.834 281.842c9.278-35.42-5.315-69.926-32.594-77.071-27.278-7.145-56.913 15.775-66.191 51.195-9.278 35.42 5.315 69.926 32.593 77.071 27.279 7.145 56.914-15.776 66.192-51.195z" fill="#CC7D7D"/><path d="M441.014 273.932c8.138-31.238-4.894-61.675-29.107-67.983-24.213-6.308-50.439 13.902-58.577 45.14-8.138 31.239 4.894 61.676 29.107 67.984 24.213 6.307 50.439-13.902 58.577-45.141z" fill="#E5D2B7"/><path d="M445.354 273.902c7.847-30.67-5.442-60.561-29.682-66.764-24.241-6.202-50.254 13.632-58.102 44.301-7.848 30.67 5.441 60.561 29.682 66.763 24.241 6.203 50.254-13.631 58.102-44.3z" fill="#FFF1DC"/><path d="M413.346 284.761c-23.865-7.559-35.985-38.289-27.072-68.658a76.574 76.574 0 011.822-5.421c-13.28 6.776-24.617 20.492-29.842 38.334-8.913 30.369 3.207 61.1 27.072 68.658 22.419 7.092 47.202-8.778 57.531-35.879-9.35 4.742-19.664 6.082-29.511 2.966z" fill="#F4E2C9"/><path d="M435.608 271.588c5.588-21.841-3.877-43.127-21.141-47.544-17.264-4.418-35.79 9.706-41.378 31.546-5.589 21.84 3.876 43.126 21.14 47.544 17.264 4.417 35.79-9.706 41.379-31.546z" fill="#C1A584"/><path d="M428.222 287.817a95.635 95.635 0 00-12.452-4.893c-18.052-5.707-34.871-5.511-41.932-.181 3.312 9.651 9.982 17.15 19.001 20.01 12.753 4.02 26.59-2.379 35.383-14.936z" fill="#DDC2A8"/><path d="M425.965 269.382c5.537-20.114-1.536-39.603-15.798-43.529-14.262-3.926-30.313 9.197-35.85 29.312-5.537 20.114 1.536 39.603 15.798 43.529 14.262 3.926 30.313-9.197 35.85-29.312z" fill="#56323B"/><path d="M422.957 268.518c5.115-18.583-1.422-36.589-14.602-40.218-13.18-3.628-28.011 8.496-33.127 27.079-5.116 18.584 1.422 36.59 14.601 40.218 13.18 3.628 28.012-8.495 33.128-27.079z" fill="#619CAA"/><path d="M414.295 282.156c-15.719-4.969-30.58-4.773-38.259-.241 2.605 6.595 7.137 11.579 13.174 13.476 9.471 2.996 19.965-2.349 27.102-12.573-.677-.225-1.34-.451-2.017-.662z" fill="#80CBD8"/><path d="M474.872 210.83l-125.146-39.602-.5 1.579 125.147 39.602.499-1.579z" fill="#D8BE9E"/><path d="M392.33 159.969l-2.627-.831-7.482 23.643 2.627.831 7.482-23.643zM413.845 166.76l-2.627-.832-7.482 23.643 2.627.831 7.482-23.642z" fill="#D8BE9E"/><path d="M267.689 97.17c1.807-22.96.226-41.556 10.57-49.822 10.344-8.266 30.143-5.736 33.516 2.53 0 0 25.807.843-1.687 43.68-9.35 19.573-42.399 3.613-42.399 3.613z" fill="#AA4F3D"/><path d="M299.097 55.584c-9.2-3.93-16.939-3.824-18.218-9.982-.919.527-1.807 1.099-2.62 1.746-10.344 8.267-8.778 26.861-10.57 49.823 0 0 33.064 15.96 42.399-3.629 9.621-14.996 12.708-24.828 12.663-31.303-5.089 4.11-13.792-2.439-23.654-6.655z" fill="#8C3425"/><path d="M282.384 213.874c-.572 15.343-2.936 59.278.422 57.968 1.279-.497 2.393-.843 3.342-1.069 4.803-1.099 8.733-4.502 10.254-9.199 6.414-19.8 17.42-55.469 17.224-66.159-.271-15.057-31.242 18.459-31.242 18.459z" fill="#FFB882"/><path d="M294.249 268.229s19.679-57.773 19.393-72.829c-.286-15.057-31.258 18.474-31.258 18.474-.135 3.749-.331 8.989-.527 14.786 23.895-20.658 12.392 39.569 12.392 39.569z" fill="#FF9566"/><path d="M304.261 121.532c13.054 11.082 24.874 30.55 9.26 77.707l-33.651 16.276s-5.722-13.008-4.593-17.842c1.145-4.818 17.948-85.521 28.984-76.141z" fill="#F7DEB0"/><path d="M296.944 181.774c-4.999-1.054-5.556-20.026-3.659-36.874-8.507 20.733-17.33 49.928-18.008 52.788-1.129 4.834 4.593 17.843 4.593 17.843l33.651-16.277c4.412-13.34 6.776-23.307 7.649-31.242-6.806 9.29-17.029 15.282-24.226 13.762z" fill="#E8C792"/><path d="M280.683 220.559c-3.975-1.987-1.084-6.594-2.409-7.106-4.261-1.642-3.614-5.436-3.268-7.243.708-3.688 40.066-29.405 45.035-27.282 4.968 2.138-4.126 26.349-5.677 28.201-1.581 1.852-30.745 14.891-33.681 13.43z" fill="#EAC18B"/><path d="M283.318 218.888c-3.283-1.641-.889-5.45-2.003-5.872-3.523-1.355-2.981-4.502-2.695-5.992.587-3.057 33.124-24.317 37.235-22.555 4.11 1.761-3.403 21.787-4.698 23.307-1.295 1.536-25.415 12.317-27.839 11.112z" fill="#F7D7A9"/><path d="M320.026 178.928c-2.139-.919-10.691 3.342-19.77 8.793 5.074-1.686 8.959-1.717 9.862.286 1.25 2.785-3.628 8.477-11.157 13.34 6.053-2.258 10.916-2.861 11.654-1.265.904 1.958-4.758 6.505-12.647 10.149-7.89 3.643-15.012 5.013-15.93 3.056-.618-1.325 1.791-3.839 5.842-6.444-5.165 1.746-9.125 1.807-10.043-.226-.512-1.129 0-2.755 1.295-4.592-2.454 1.972-4.02 3.493-4.156 4.2-.346 1.807-.994 5.617 3.267 7.243 1.341.512-1.565 5.119 2.41 7.106 2.936 1.461 32.1-11.578 33.666-13.43 1.596-1.867 10.69-26.078 5.707-28.216z" fill="#EAC18B"/><path d="M260.959 231.551l-68.643-19.544L77.238 370.734h2.274l130.42-107.835h16.487l30.685 22.63s-23.021 81.576-23.021 82.419l2.845-.843 41.195-87.449-17.164-48.105z" fill="#144A6A"/><path d="M258.956 239.139l-61.642-18.128-5.42 9.004c25.927 7.092 50.59 12.964 67.062 9.124z" fill="#0F5D8C"/><path d="M262.555 229.729l-18.038.421 26.575 48.166-34.962 89.015.798-.241 42.279-87.75-16.652-49.611zM224.266 262.281l-21.847-1.716L77.434 370.734h2.078L210.338 264.75l17.044-1.144-3.116-1.325z" fill="#0F5D8C"/><path d="M290.62 183.279c-13.912 10.239-26.545 41.451-27.268 48.784-.737 7.332-2.845 6.248-6.534 6.534-3.689.286-58.239-3.975-64.789-14.213-6.534-10.224 13.07-40.909 25.28-54.264 12.211-13.355 3.689-49.16 21.019-55.408 17.331-6.249 55.981-3.463 65.918 6.82 8.537 8.808 11.097 43.574-13.626 61.747z" fill="#144A6A"/><path d="M255.357 111.625c-9.997 37.28-15.297 40.758-6.519 47.428 8.793 6.67 40.909 13.34 47.278 8.793 6.369-4.547 10.298-39.087 6.369-46.675-3.945-7.574-47.128-9.546-47.128-9.546z" fill="#F7DEB0"/><path d="M306.55 157.427c-7.513 13.024-30.957 5.707-49.838-5.194-14.951-8.628-23.834-22.585-23.141-34.48-10.932 10.75-5.361 40.457-16.247 52.367-3.357 3.674-7.272 8.642-11.051 14.153 25.536 5.451 59.172 15.463 55.273 29.119-4.457 15.629-45.396 24.317-69.637 10.751.045.075.075.166.135.241 6.535 10.223 61.085 14.484 64.789 14.213 3.689-.286 5.797.798 6.535-6.534.737-7.333 17.059-37.491 30.971-47.73 18.61-13.716 14.966-31.694 12.211-26.906z" fill="#0F5D8C"/><path d="M200.672 140.142c7.679-15.132 18.806-29.737 49.717-28.05 0 0-12.166 29.571 1.942 30.896 1.958.181 18.595 1.475 13.867 4.803-6.971 4.893-17.45 22.148-15.749 31.303.316 1.701-76.322 13.415-49.777-38.952z" fill="#F7DEB0"/><path d="M252.346 142.988c-4.712-.437-6.489-4.035-6.76-8.643-1.446 13.657-17.767 35.971-25.807 35.971-8.071 0-19.754-8.086-23.865-17.406-8.401 38.199 55.514 31.574 55.228 30.023-1.702-9.169 8.115-30.264 15.086-35.157 4.713-3.313-11.939-4.607-13.882-4.788z" fill="#E8C792"/><path d="M256.381 111.58l18.972-31.664 29.194 11.082-5.556 26.891-23.428 14.439-19.182-20.748z" fill="#FFB882"/><path d="M84.42 373.429H64.064s14.89-7.001 16.682-7.001c2.891.015 3.674 7.001 3.674 7.001zM231.041 373.429h18.761s-12.091-7.935-13.732-7.935c-2.65.015-5.029 7.935-5.029 7.935z" fill="#393939"/><path d="M239.849 258.382l-12.466 5.224-15.298.286-18.279-6.369 30.46 3.81 15.583-2.951zM231.282 238.13l-9.817-2.168-1.37 6.234 10.66.858.527-4.924z" fill="#0F5D8C"/><path d="M228.767 238.085l-6.429-1.43-.903 4.095 6.986.557.346-3.222z" fill="#EAC18B"/><path opacity=".6" d="M272.627 149.944c18.61 4.201 30.37-8.01 32.929-27.283a30.398 30.398 0 00-1.295-1.129c-1.31-1.34-3.101-2.559-5.285-3.643l4.698-22.676c-.482-1.897-1.099-3.658-1.852-5.24l-26.469-10.042-18.972 31.679c-2.062.12-4.065.286-5.992.512a85.47 85.47 0 00-7.318-.09c4.788 18.926 8.703 33.214 29.556 37.912z" fill="#843131"/><path d="M268.893 112.724c2.846 4.818 26.59 13.521 28.939 12.241 2.349-1.28 17.375-52.924 15.448-60.181-1.912-7.242-26.921-16.336-32.387-4.276-3.929 8.703-14.77 47.534-12 52.216z" fill="#FFB882"/><path d="M279.99 52.844c8.898-2.83 3.222 10.57-4.427 43.483l-6.61-7.031s3.885-34.178 11.037-36.452z" fill="#8C3425"/><path d="M270.233 95.68c-4.246-2.906-8.943-10.946-6.113-17.195 2.846-6.248 8.387 1.566 9.516 6.4 1.144 4.833-.271 12.933-3.403 10.795zM249.892 179.47c16.803 5.586 65.135 4.803 74.124.331L324 151.766c-7.934 10.419-28.381-4.05-55.573.617-6.068 1.054-28.201 23.865-18.535 27.087z" fill="#FFB882"/><path d="M311.94 178.386c-22.886 5.812-43.799 2.559-46.705-7.272-1.852-6.234 3.99-13.627 14.349-19.679-5.571-.211-9.817-.347-11.293-.302-6.188.211-31.047 27.629-21.38 30.851 16.803 5.586 68.116 2.274 77.105-2.198l1.023-5.767a93.363 93.363 0 01-13.099 4.367z" fill="#FF9566"/><path d="M268.893 146.827c-4.411 6.685-14.635 29.556-16.05 38.5-1.415 8.944-8.1.708-10.088.994-1.987.286-11.503 3.403-18.61-2.138-4.125-3.207 18.324-37.928 35.654-41.903 3.418-.783 10.781 1.973 9.094 4.547z" fill="#F7D7A9"/><path d="M259.799 142.28c-2.138.497-4.336 1.446-6.565 2.756.844-.106 1.536.045 2.033.451 1.024.828 1.159 2.635.527 5.029.437-.196.828-.256 1.159-.135 2.138.843 1.145 8.492-2.213 17.104-3.358 8.612-7.814 14.906-9.952 14.078-1.913-.753-1.31-6.956 1.234-14.424-6.956 8.251-14.379 13.159-16.984 11.066-1.58-1.264-1.023-4.818 1.085-9.32-4.954 7.514-7.649 14.003-5.978 15.298 7.107 5.541 16.623 2.409 18.61 2.138 1.988-.286 8.673 7.95 10.088-.994 1.415-8.944 11.639-31.815 16.05-38.5 1.687-2.574-5.676-5.33-9.094-4.547z" fill="#EAC18B"/><path d="M319.514 154.958c4.953-4.623 12.602-14.199 13.264-17.978.663-3.779 4.472-14.213 8.041-13.731 3.553.481 3.704 2.243 3.704 2.243s-15.448 52.322-21.802 52.141c-6.339-.181-3.207-22.675-3.207-22.675z" fill="#FFB882"/><path d="M317.872 176.669c.512 2.605 4.517 3.072 6.143 3.117 6.339.181 9.682-19.092 9.682-19.092s-7.212 12.753-15.825 15.975z" fill="#FF9566"/><path d="M334.134 138.335c2.439-2.966 15.523-2.89 16.396-1.565.874 1.325 1.28 6.775-.768 7.453-2.047.692-13.701 3.478-14.996 5.345-1.295 1.867-4.667-6.324-.632-11.233zM330.956 152.368c2.44-2.966 15.524-2.891 16.397-1.566.873 1.325 1.28 6.776-.768 7.468-2.048.693-13.701 3.478-14.996 5.345-1.28 1.867-4.668-6.323-.633-11.247z" fill="#FFB882"/><path d="M269.631 91.976c-2.605-1.777-5.495-6.715-3.749-10.555 1.747-3.839 5.149.964 5.842 3.93.693 2.966-.181 7.935-2.093 6.625z" fill="#EA7B59"/><path d="M269.932 92.744c-1.611-1.1-3.403-4.156-2.318-6.534 1.084-2.38 3.192.587 3.613 2.424.437 1.837-.105 4.923-1.295 4.11z" fill="#FFB882"/><path d="M300.272 82.55l-16.457-4.11-2.982 11.865 14.545 3.644 4.894-11.398z" fill="#FFF9DE"/><path d="M284.191 78.5l-14.605-3.96-.331 1.31 13.581 6.46 1.355-3.81zM301.446 82.882l13.762 3.418-4.246 11.578-11.037-2.755 1.521-12.241z" fill="#FFF9DE"/><path d="M302.229 84.327l11.413 2.831-3.509 9.606-9.154-2.288 1.25-10.149z" fill="#FFB882"/><path d="M300.798 86.36l-1.716.226-4.803 20.898s8.928-.376 9.019-.918c.075-.557-2.5-20.206-2.5-20.206z" fill="#FFB882"/><path d="M300.874 85.246l-.407.06c.331 3.915 1.491 20.146 1.416 20.628-.061.406-4.894.707-7.453.843l-.166.707s8.928-.376 9.019-.918c.09-.557-2.409-21.32-2.409-21.32z" fill="#EA7B59"/><path d="M298.69 83.379l-14.138-3.538-2.469 9.907 12.482 3.117 4.125-9.486z" fill="#FFB882"/><path d="M296.372 81.527c-2.334-.617-10.495-4.156-10.495-4.156s-.436-4.547 1.19-5.39c1.626-.828 9.636 4.939 10.193 5.48.542.543-.888 4.066-.888 4.066zM302.078 82.58c2.123.528 9.893 1.22 9.893 1.22s1.581-3.553.436-4.953c-1.144-1.4-9.395-.196-9.997 0-.603.21-.332 3.734-.332 3.734z" fill="#7F4442"/><path d="M299.157 82.28l2.966.737-.557 3.313-3.086-.768.677-3.282z" fill="#FFF9DE"/><path d="M304.141 86.134l3.93.979s-.873 3.96-2.906 3.463c-2.033-.497-1.024-4.442-1.024-4.442zM288.994 81.843l3.192.858s-1.189 3.795-2.846 3.343c-1.656-.422-.346-4.2-.346-4.2z" fill="#492E2E"/><path d="M280.728 106.024c-.09-.738 2.364-3.297 3.117-3.026 3.297 1.174 10.238 6.534 11.142 7.091v.331c-4.276-.09-13.702-.015-14.259-4.396z" fill="#492D26"/><path d="M291.448 112.016c.03-.225-.783-.542-1.837-.692-1.054-.151-1.927-.09-1.957.135-.03.226.783.542 1.837.693 1.054.151 1.927.09 1.957-.136z" fill="#EA7B59"/><path d="M281.375 106.175c-.075-.648 2.078-2.906 2.756-2.665 2.906 1.038 9.049 5.766 9.832 6.263v.286c-3.764-.09-12.106-.03-12.588-3.884z" fill="#FFF9DE"/><path opacity=".55" d="M309.095 86.134l4.035.979-7.468 8.296-3.222-.813 6.655-8.462zM291.493 81.798l4.036.994-7.484 8.28-3.207-.797 6.655-8.477z" fill="#FFF7DB"/><path d="M288.542 258.201c-.903-.858-2.424-.542-2.891.632-1.671 4.216-6.233 10.706-8.642 14.56-1.461 2.349-3.749 9.531-1.762 14.138 3.448 7.965 10.043 6.414 6.986 3.764-2.258-1.957-3.357-5.601 4.021-6.82 1.535-.256 2.484-3.358 1.731-6.098-.813-2.936 4.336-3.629 7.543-13.566l-6.986-6.61z" fill="#FFB882"/><path d="M279.749 286.131c2.77 3.854 2.951 5.104 4.773 6.881 1.822 1.791 5.541 4.682 6.489 5.721 1.069 1.145-1.039 4.803-2.198 4.201-1.731-.888-6.098-4.637-7.739-6.053-1.054-.903-3.207-4.411-5.194-8.07-2.093-3.84.21-7.769 3.869-2.68zM282.414 274.914c2.334-1.069 6.58 4.803 7.468 4.968.903.181 3.734-2.062 5.104-1.701 1.385.361 2.545 2.966 2.078 3.478-.467.497-4.848 2.996-6.309 3.162-1.46.166-4.833-1.084-7.106.422-4.096 2.725-8.131-7.152-1.235-10.329z" fill="#FFB882"/><path d="M283.649 283.436c1.415 1.355 2.951 3.207 4.517 3.93 1.566.722 4.08-3.102 5.179-3.102 1.099 0 3.282 2.138 2.801 3.327-.497 1.19-5.737 4.502-6.761 4.864-1.024.361-8.221-2.605-9.907-4.683-1.927-2.394 1.054-7.332 4.171-4.336z" fill="#FFB882"/><path d="M475.379 176.097c6.595-5.48 11.368-11.578 15.584-19.573l42.64 26.017c-11.94 11.699-24.738 20.869-39.478 24.332l-18.746-30.776z" fill="#FF9566"/><path d="M482.275 169.397l24.136 24.618 14.59-7.935c-12.497-10.148-24.181-18.189-34.344-22.389a58.49 58.49 0 01-4.382 5.706z" fill="#FFB882"/><path d="M528.424 90.516c-10.705-3.328-38.44 43.769-42.083 64.939l45.26 33.049c26.74-48.106 7.528-94.66-3.177-97.988z" fill="#F7DEB0"/><path d="M528.424 90.516c-.798-.241-1.686-.181-2.665.09 4.502 19.679 4.366 51.614-11.308 85.386l17.135 12.512c26.755-48.106 7.543-94.66-3.162-97.988z" fill="#E8C792"/><path d="M476.358 168.87c20.688 10.75 30.174 40.442 30.174 40.442s-37.401 1.792-64.894-2.213l-2.982-17.707 37.702-20.522z" fill="#FFBF4D"/><path d="M497.377 190.055c-10.645 2.228-54.927 17.887-54.927 17.887 27.494 4.005 64.081 1.37 64.081 1.37s-2.966-9.23-9.154-19.257zM435.194 207.821c-3.674 1.958-7.724 2.846-10.179 5.361-.903.933.889 4.968 2.966 4.818 2.078-.151 5.541-1.822 6.113-2.274.573-.452 2.394-8.582 1.1-7.905z" fill="#FFA33E"/><path d="M421.989 212.368c.361 1.325 3.056 5.105 5.797 5.632 1.008.195 3.387-3.343 2.138-4.231-1.973-1.416-4.306-4.276-4.849-4.457-.542-.181-3.432 1.762-3.086 3.056z" fill="#FFA33E"/><path d="M447.585 204.885c-2.138 1.039-3.99 2.575-4.848 4.969-.663 1.837-7.679 5.466-8.959 5.691-1.385.241-4.698 1.054-8.371-4.968-3.238-5.315-3.719-7.257-.994-9.245 2.725-1.987 2.635-11.368 3.403-12.512 1.806-2.74 5.872.602 12.256-.105 16.878-1.898 19.709 10.283 7.513 16.17z" fill="#FFBF4D"/><path d="M440.102 190.04c-1.656-1.386-13.927-3.162-16.366-2.244-2.455.919-8.793.768-10.299.919-1.506.15-1.686 4.125-.316 4.381 1.355.256 9.305.452 10.946 1.144 3.282 1.371 1.475 5.105 1.28 6.445 2.529.557 19.393-6.761 14.755-10.645z" fill="#FFBF4D"/><path d="M428.027 199.841c-3.554 1.009-7.755 3.283-8.869 2.681-1.114-.603-8.115-6.174-8.928-5.797-.813.361-3.222 2.559-2.033 3.869 1.189 1.295 8.673 6.55 10.525 6.911 1.852.362 6.564.076 7.151-.226.573-.301 3.388-7.784 2.154-7.438zM431.459 206.617c-4.035 1.159-8.205 1.189-11.142 3.132-1.084.722-.135 4.998 1.943 5.284 2.078.272 5.842-.632 6.504-.963.648-.331 4.111-7.86 2.695-7.453z" fill="#FFBF4D"/><path d="M415.966 207.761c.241 1.4 2.906 5.902 6.083 7.287 1.175.512 4.517-2.153 3.147-3.417-2.138-1.988-4.502-5.496-5.134-5.842-.602-.362-4.321.617-4.096 1.972z" fill="#FFBF4D"/><path d="M452.011 204.629c-2.649 1.084-10.539 1.431-11.744 3.855-.918 1.852-11.202 5.812-12.843 6.128 2.078 1.445 5.661 1.731 6.535 1.581 1.279-.226 8.522-4.382 9.184-6.204.858-2.394 4.156-1.46 7.799-1.069 4.773.497 5.225-6.007 1.069-4.291z" fill="#FFA33E"/><path d="M149.555 148.559c6.023 5.179 15.057-5.3 8.1-10.796-5.977-4.712-15.99 4.005-8.1 10.796z" fill="#FF9566"/><path d="M131.864 65.236c-.618-7.529-8.056-12.136-15.539-10.435-6.55 1.491-10.78 7.378-10.163 13.25.602 5.827 5.842 10.525 12.422 10.54 7.498.03 13.897-5.917 13.28-13.355zM136.139 33.903c-.376-4.803-3.523-8.703-7.016-8.703-3.493-.015-6.023 3.87-5.646 8.673.376 4.803 3.523 8.703 7.016 8.703 3.508.014 6.023-3.87 5.646-8.673z" fill="#6D2D38"/><path d="M82.914 39.414c-2.439-12.362-4.306-19.83-1.867-23.865 2.44-4.035 23.188-18.173 33.908-14.515 6.324 2.153 11.925 19.408 11.925 19.408L82.914 39.414z" fill="#144A6A"/><path d="M114.955 1.034c-4.728-1.61-11.413.241-17.617 3.162-1.897 2.5-2.996 5.406-2.996 8.552 0 7.318 5.933 13.506 14.138 15.644l18.4-7.935c.015-.03-5.601-17.27-11.925-19.423z" fill="#6BADDB"/><path d="M117.078 6.967c-1.25-2.8-3.87-4.698-5.842-4.261-1.988.436-2.575 3.056-1.325 5.857 1.25 2.8 3.869 4.697 5.842 4.26 1.987-.451 2.574-3.07 1.325-5.856z" fill="#A2D6F4"/><path d="M126.85 90.455c18.158 15.494 28.216 31.89 28.216 31.89l-16.397 17.391-11.819-49.28z" fill="#E8C792"/><path d="M118.99 371.818h3.448s33.17-129.863 29.722-176.99l-25.852-74.395-28.457-7.001c8.627 71.278-8.763 64.412-13.506 86.982-4.773 22.69 34.645 171.404 34.645 171.404z" fill="#0F5D8C"/><path d="M127.979 221.779l-12.091-6.038 10.329 11.579s-4.532 139.785-5.044 141.035h2.018l7.302-141.291 13.596-11.835-16.11 6.55z" fill="#144A6A"/><path d="M109.971 269.749c-4.788-65.225.813-81.923 19.393-90.159 6.956-3.086 14.755-1.415 20.146 8.312l-23.202-67.469-28.457-7.001c8.627 71.278-10.856 63.99-15.6 86.56-4.772 22.69 36.724 171.826 36.724 171.826h3.448c.015 0-10.75-78.821-12.452-102.069z" fill="#144A6A"/><path d="M93.755 177.678c19.86-6.474 30.053-32.356 47.157-14.8l-14.589-42.46-28.457-7.001c4.712 39.087.993 54.55-4.11 64.261z" fill="#0F5D8C"/><path d="M86.212 91.87c-1.295 7.544 12.933 55.198 16.381 57.562 3.448 2.379 45.065-3.011 46.781-5.39 1.732-2.379-1.641-31.529-21.35-53.677-4.096-4.607-13.958-9.802-22.856-8.838-9.802 1.069-18.309 6.58-18.956 10.344z" fill="#144A6A"/><path d="M111.356 145.713c-3.207-2.213-18.173-47.338-19.272-59.925-3.328 1.957-5.556 4.23-5.872 6.068-1.295 7.543 12.497 57.395 15.945 59.759 3.026 2.078 35.789-4.005 44.898-6.594-13.099 2.183-33.365 2.288-35.699.692z" fill="#0F5D8C"/><path d="M94.975 164.88c-10.72-21.44-20.266-65.677-9.772-70.42 3.282-1.49 14.093 46.706 17.541 55.77 3.448 9.049 1.009 32.191-7.77 14.65z" fill="#FF9566"/><path d="M85.067 156.554l17.105-17.541S94.93 95.379 86.919 90.425c-8.431 6.43-14.078 24.302-1.852 66.129z" fill="#F7DEB0"/><path d="M86.347 90.892c-8.115 6.79-13.22 24.783-1.28 65.647l11.368-11.654c-13.55-28.547-14.153-45.02-10.088-53.993z" fill="#E8C792"/><path d="M138.263 116.865c-2.62-7.348-6.731-17.918-11.428-26.41-4.608-4.26-13.536-8.522-21.652-7.633-6.46.707-12.346 3.342-15.81 6.128 8.312 9.5 13.913 25.747 16.488 34.464a7.468 7.468 0 007.935 5.3l18.218-1.942c4.803-.512 7.875-5.36 6.249-9.907z" fill="#F7DEB0"/><path d="M122.679 126.817L110.95 91.72l1.535-.406 11.699 35.262-1.505.241z" fill="#E8C792"/><path d="M138.262 116.865c-2.619-7.348-6.73-17.918-11.428-26.41-1.249-1.159-2.83-2.318-4.607-3.372.919.647 1.747 1.31 2.469 1.987 4.698 8.492 8.809 19.062 11.428 26.41 1.611 4.547-1.445 9.395-6.248 9.907l-18.219 1.942a7.535 7.535 0 01-3.719-.557 7.39 7.39 0 005.857 1.942l18.219-1.942c4.803-.512 7.875-5.36 6.248-9.907z" fill="#E8C792"/><path d="M94.628 85.758l3.9-2.003c7.649 5.872 13.777 6.173 17.165.256l2.514 1.009-1.641 10.073-4.216-2.334-3.659 5.255-14.063-12.256z" fill="#E5C289"/><path d="M98.724 156.072c6.564-15.93 29.691-28.186 29.691-28.186l.723 1.43s-16.893 38.199-26.755 40.759c-7.197 1.867-5.255-10.133-3.66-14.003z" fill="#FFB882"/><path d="M128.415 127.886s-20.055 34.51-27.041 36.332c-1.943.497-3.222-.106-4.02-1.325-.332 4.758.587 9.681 5.164 8.507 9.847-2.56 26.635-42.068 26.635-42.068l-.738-1.446z" fill="#FF9566"/><path d="M112.365 62.119c-9.892 21.11-17.962 13.792-17.962 13.792S80.61 80.232 79.316 69.3c0 0-9.772-3.162-7.332-18.4 2.439-15.237 14.8-14.228 14.8-14.228s4.02-9.922 14.665-8.627c10.63 1.295 10.916 34.073 10.916 34.073z" fill="#6D2D38"/><path d="M113.811 51.76l-11.925-2.018s-.151 22.706-4.593 35.218c10.57 8.01 17.255 8.642 18.836-.437l-2.318-32.763z" fill="#FFB882"/><path d="M147.628 158.285l-25.867.723-.452-1.476 22.013-42.549 28.321.813.813 1.55-24.828 40.939z" fill="#5E484F"/><path d="M147.628 158.285l-25.868.723 22.751-42.324 27.945.662-24.828 40.939z" fill="#47333A"/><path d="M147.628 158.285c14.364-26.033 11.985-38.831-3.117-41.616l27.945.662-24.828 40.954zM140.943 156.102h-7.845l-.707.843h7.844l.708-.843z" fill="#3A2930"/><path d="M142.9 373.429h-20.974s-1.325-6.233 2.831-8.116c4.155-1.882 18.143 8.116 18.143 8.116z" fill="#393939"/><path d="M111.914 373.429h12.361s-.903-6.233-3.87-8.116c-2.966-1.882-8.491 8.116-8.491 8.116z" fill="#393939"/><path d="M94.915 84.162l3.96-5.315c7.648 5.872 13.701 7.347 17.089 1.415l1.791 2.86-2.077 10.45-3.494-1.987-3.583 4.727-13.686-12.15z" fill="#62ACDD"/><path d="M103.256 140.473l-2.153-6.986-17.797 18.023 2.364 7.558 17.586-18.595z" fill="#144A6A"/><path d="M94.358 140.338L83.32 151.525l2.364 7.543L97.88 146.18c-1.325-1.671-2.53-3.644-3.523-5.842z" fill="#0F5D8C"/><path opacity=".6" d="M121.369 114.681c8.552-1.671 12.557-8.913 11.684-18.594-.452-.437-.903-.874-1.37-1.31a81.686 81.686 0 00-3.644-4.412c-2.168-2.44-5.962-5.029-10.359-6.805l.091-.437-1.792-2.86c-.045.09-.106.15-.151.24l-1.295-18.49c-4.005-3.9-8.326-7.212-12.692-9.771-.151 5.074-.708 17.014-2.861 26.68a.316.316 0 00-.09-.06l-3.96 5.315.12.12c-3.011 1.34-5.465 2.981-7.016 4.593-.015.03-.045.045-.06.06a8.63 8.63 0 00-.618.707c-.045.06-.075.12-.135.181-.15.196-.286.392-.407.587-.045.076-.06.136-.105.211-.12.09-.241.196-.347.286-.24.211-.481.422-.722.648l-.045.045c-.226.21-.452.436-.663.662-.03.03-.06.06-.075.09-.21.227-.407.452-.617.693-.03.045-.076.09-.106.12-.196.242-.376.482-.572.723-.045.06-.09.106-.12.166-.181.24-.347.497-.527.753-.046.075-.09.15-.151.226-.075.105-.135.225-.21.346 11.698 13.265 27.493 21.501 38.815 19.287z" fill="#C94343"/><path d="M96.902 35.288c.843 26.35 7.077 35.67 25.897 42.43 0 0 18.926-28.879 7.453-53.647-7.167-15.538-33.636 2.304-33.35 11.217z" fill="#FFB882"/><path d="M100.064 63.414c7.242-18.279 2.876-35.624 8.04-40.11 0 0-10.81 3.522-16.17 12.285-5.36 8.763 8.13 27.825 8.13 27.825z" fill="#894049"/><path d="M95.08 42.877c2.289-8.778 6.986-15.584 11.699-17.692.361-.753.783-1.415 1.34-1.882 0 0-11.609 3.057-16.969 11.82-2.604 4.26.045 11.428 2.635 17.194.03-2.951.437-6.158 1.295-9.44z" fill="#6D2D38"/><path d="M102.669 47.74c-5.014 0-9.064-5.842-9.064-13.04 0-.526.03-1.038.075-1.535-.618.753-2.38 1.28-2.906 2.138-5.375 8.778 9.29 28.11 9.29 28.11 2.168-5.465 3.282-10.84 3.93-15.824-.437.09-.874.15-1.325.15z" fill="#6D2D38"/><path d="M98.678 47.635c-3.402-4.849-10.66.782-7.573 5.33 3.087 4.562 10.329 6.925 11.247 5.405.919-1.536-2.123-8.522-3.674-10.735z" fill="#FFB882"/><path d="M98.092 49.23c-2.153-3.071-6.76.497-4.788 3.388 1.957 2.891 6.55 4.397 7.136 3.418.558-.979-1.37-5.405-2.348-6.806z" fill="#DB5B3E"/><path d="M99.522 52.468c-1.34-1.913-4.186.3-2.966 2.092 1.22 1.792 4.05 2.726 4.411 2.123.362-.602-.828-3.342-1.445-4.215z" fill="#FFB882"/><path d="M130.463 44.307c-.06-2.44-1.25-4.427-2.68-4.442-1.415-.015-2.515 1.958-2.469 4.412.06 2.44 1.249 4.426 2.665 4.442 1.445 0 2.544-1.973 2.484-4.412zM116.551 44.157c.015-2.816-1.205-5.18-2.741-5.285-1.535-.106-2.785 2.077-2.8 4.893-.015 2.8 1.204 5.18 2.74 5.285 1.536.105 2.786-2.093 2.801-4.893z" fill="#66423B"/><path d="M108.541 42.877s4.728-3.644 8.989-2.74c0 0-1.069-2.274-4.216-1.762-3.132.512-4.773 4.502-4.773 4.502zM132.255 42.244s-4.382-2.966-8.131-1.927c0 0 .858-2.093 3.674-1.822 2.816.271 4.457 3.75 4.457 3.75z" fill="#66423B"/><path d="M107.411 37.683l-.165-.602c1.521-3.644 5.42-5.963 7.739-6.37l.256 2.124c-1.912-.12-6.083 1.791-7.83 4.848zM132.707 36.914c-2.545-3.598-7.228-4.411-8.357-4.29l.09-2.094c1.28-.075 5.662 1.144 8.583 5.661l-.316.723z" fill="#C14D33"/><path d="M124.44 52.212c-.015.075 0 .15-.015.24-.421 1.552-2.002 2.32-3.523 1.732-.903-.346-1.536-1.099-1.852-1.987-.271 1.49.572 3.071 2.018 3.643 1.52.588 3.101-.18 3.523-1.731.151-.648.06-1.295-.151-1.897z" fill="#EA7B59"/><path d="M115.738 60.388l9.756.36s-1.129 5.15-5.104 4.88c-3.824-.242-4.652-5.24-4.652-5.24z" fill="#491D2E"/><path d="M116.4 60.628l8.281.316s.572 2.32-4.14 2.229c-4.969-.105-4.141-2.545-4.141-2.545z" fill="#FFEBEB"/><path d="M122.498 67.389c.03-.648-.843-.03-1.897-.075-1.039-.046-1.867-.723-1.897-.076-.03.648.798 1.205 1.837 1.25 1.054.03 1.927-.452 1.957-1.1z" fill="#EF8F6F"/><path opacity=".6" d="M130.268 24.056c-4.743-10.239-17.858-5.963-26.169.692a35.72 35.72 0 00-5.977 3.283c-8.146.843-11.338 8.642-11.338 8.642s-12.361-1.009-14.8 14.229C69.544 66.139 79.316 69.3 79.316 69.3c.346 2.86 1.55 4.683 3.132 5.797 19.603-24.829 41.21-33.622 51.644-36.588-.467-4.833-1.641-9.726-3.824-14.454z" fill="#C94343"/><path d="M145.866 2.75c-12.346.723-32.778 11.91-47.73 25.28 15.599-7.934 27.75-9.184 33.155-1.7 19.965-13.37 24.347-24.151 14.575-23.58z" fill="#0F5D8C"/><path d="M145.866 5.024c2.71-.165 4.336.557 4.833 1.958.723-2.861-.918-4.457-4.833-4.231-12.346.723-32.778 11.91-47.73 25.28a89.742 89.742 0 016.099-2.83c14.032-11.007 30.896-19.544 41.631-20.177z" fill="#144A6A"/><path d="M157.685 141.558c-.436-2.199 3.403-8.191 4.472-7.875 1.069.316-.256 7.619-1.822 10.389-1.49 2.62-2.65-2.514-2.65-2.514z" fill="#FF9566"/><path d="M161.224 135.384c-3.96-.436-6.67.889-6.73-.316-.061-1.189 7.422-2.018 7.739-1.581.301.452-1.009 1.897-1.009 1.897zM160.335 137.838c-3.959-.436-6.67.889-6.73-.316-.06-1.189 7.423-2.017 7.739-1.581.316.452-1.009 1.897-1.009 1.897zM159.582 140.112c-3.959-.437-6.67.888-6.73-.316-.06-1.19 7.423-2.018 7.739-1.581.316.452-1.009 1.897-1.009 1.897z" fill="#FF9566"/><path d="M123.116 135.716c3.086-2.726 9.094-3.81 10.313-5.948.949-1.671-2.198-6.82-3.613-6.82-1.416 0-8.025 10.916-8.025 10.916l1.325 1.852z" fill="#FFB882"/><path d="M124.124 130.596c.753-3.448.226-9.29.347-10.329.12-1.023 1.37-.602 1.987 2.244.632 2.906.015 3.854 1.4 4.381 1.491.542-4.125 5.451-3.734 3.704z" fill="#FFB882"/><path d="M129.59 126.576c1.22-2.168 4.141-7.272 3.388-7.814-.753-.542-5.466 6.73-5.466 6.73l2.078 1.084zM131.562 127.916c1.671-1.611 5.692-5.39 5.029-6.007-.662-.618-6.926 4.652-6.926 4.652l1.897 1.355zM132.782 130.521c2.695-1.521 6.459-4.397 5.767-5.029-.678-.632-7.845 3.614-7.845 3.614l2.078 1.415z" fill="#FFB882"/><path d="M.69 370.252l305.167 26.183 328.746-26.183H.69z" fill="#E4E4E4"/></svg>